#tb 0: 1/25
0,          0,          0,        1,   196608, 0x6e698770
0,          1,          1,        1,   196608, 0x374d74a7
0,          2,          2,        1,   196608, 0x3d817143
